<svg width="26" height="23" viewBox="0 0 26 23" fill="none" xmlns="http://www.w3.org/2000/svg">
<path d="M26 23H0V20.4444H1.3V1.27778C1.3 0.93889 1.43696 0.613882 1.68076 0.374252C1.92456 0.134623 2.25522 0 2.6 0H20.8C21.1448 0 21.4754 0.134623 21.7192 0.374252C21.963 0.613882 22.1 0.93889 22.1 1.27778V7.66667H24.7V20.4444H26V23ZM19.5 20.4444H22.1V10.2222H14.3V20.4444H16.9V12.7778H19.5V20.4444ZM19.5 7.66667V2.55556H3.9V20.4444H11.7V7.66667H19.5ZM6.5 10.2222H9.1V12.7778H6.5V10.2222ZM6.5 15.3333H9.1V17.8889H6.5V15.3333ZM6.5 5.11111H9.1V7.66667H6.5V5.11111Z" fill="#AFAFAF"/>
</svg>
