<svg width="60" height="57" viewBox="0 0 60 57" fill="none" xmlns="http://www.w3.org/2000/svg">
<rect width="60" height="44" rx="12" fill="#1677BD"/>
<path d="M10.9318 33V15.5455H15.5455V18.625H15.75C16.1136 17.6023 16.7197 16.7955 17.5682 16.2045C18.4167 15.6136 19.4318 15.3182 20.6136 15.3182C21.8106 15.3182 22.8295 15.6174 23.6705 16.2159C24.5114 16.8068 25.072 17.6098 25.3523 18.625H25.5341C25.8902 17.625 26.5341 16.8258 27.4659 16.2273C28.4053 15.6212 29.5152 15.3182 30.7955 15.3182C32.4242 15.3182 33.7462 15.8371 34.7614 16.875C35.7841 17.9053 36.2955 19.3674 36.2955 21.2614V33H31.4659V22.2159C31.4659 21.2462 31.2083 20.5189 30.6932 20.0341C30.178 19.5492 29.5341 19.3068 28.7614 19.3068C27.8826 19.3068 27.197 19.5871 26.7045 20.1477C26.2121 20.7008 25.9659 21.4318 25.9659 22.3409V33H21.2727V22.1136C21.2727 21.2576 21.0265 20.5758 20.5341 20.0682C20.0492 19.5606 19.4091 19.3068 18.6136 19.3068C18.0758 19.3068 17.5909 19.4432 17.1591 19.7159C16.7348 19.9811 16.3977 20.3561 16.1477 20.8409C15.8977 21.3182 15.7727 21.8788 15.7727 22.5227V33H10.9318ZM49.5057 15.5455V19.1818H38.733V15.5455H49.5057ZM41.1989 33V14.2841C41.1989 13.0189 41.4451 11.9697 41.9375 11.1364C42.4375 10.303 43.1193 9.67803 43.983 9.26136C44.8466 8.8447 45.8277 8.63636 46.9261 8.63636C47.6686 8.63636 48.3466 8.69318 48.9602 8.80682C49.5814 8.92045 50.0436 9.02273 50.3466 9.11364L49.483 12.75C49.2936 12.6894 49.0587 12.6326 48.7784 12.5795C48.5057 12.5265 48.2254 12.5 47.9375 12.5C47.2254 12.5 46.7292 12.6667 46.4489 13C46.1686 13.3258 46.0284 13.7841 46.0284 14.375V33H41.1989Z" fill="white"/>
<path d="M13 55.5V41H27L13 55.5Z" fill="#1677BD" stroke="#1677BD"/>
</svg>
